<!--changed fill to purple-->
<svg id="Ebene_1" data-name="Ebene 1" xmlns="http://www.w3.org/2000/svg" viewBox="0 0 32 40"><path fill="#7827de" d="M11,44a2.88,2.88,0,0,1-2.1-.9A2.88,2.88,0,0,1,8,41V7a2.88,2.88,0,0,1,.9-2.1A2.88,2.88,0,0,1,11,4H29.05L40,15V41a3.08,3.08,0,0,1-3,3ZM27.55,16.3V7H11V41H37V16.3ZM11,7V7Z" transform="translate(-8 -4)"/><path fill="#7827de" d="M20,30.27l4.39-5.77a3.53,3.53,0,0,0,.46-.79A2,2,0,0,0,25,23v0a1,1,0,0,0-.33-.8,1.44,1.44,0,0,0-.95-.28,1.28,1.28,0,0,0-1,.39,1.82,1.82,0,0,0-.45,1.11H19.82a4.65,4.65,0,0,1,.58-2.05A3.27,3.27,0,0,1,21.74,20a4.07,4.07,0,0,1,2-.45,4.82,4.82,0,0,1,2,.39A2.77,2.77,0,0,1,27,21.06a3.44,3.44,0,0,1,.45,1.8h0a5.21,5.21,0,0,1-.3,1.73,5.68,5.68,0,0,1-.85,1.55l-3.15,4h4.37v2.32H20Z" transform="translate(-8 -4)"/></svg>