<?xml version="1.0" encoding="utf-8"?>
<!-- Generator: Adobe Illustrator 26.0.2, SVG Export Plug-In . SVG Version: 6.00 Build 0)  -->
<svg version="1.1" id="Ebene_1" xmlns="http://www.w3.org/2000/svg" xmlns:xlink="http://www.w3.org/1999/xlink" x="0px" y="0px"
	 viewBox="0 0 36.3 43" style="enable-background:new 0 0 36.3 43;" xml:space="preserve">
<style type="text/css">
	.st0{fill:#7827DE;}
</style>
<path class="st0" d="M16.9,33.6h3v-6.5h6.5v-3h-6.5v-6.5h-3v6.5h-6.5v3h6.5V33.6z M5.4,41.3c-0.8,0-1.5-0.3-2.1-0.9
	c-0.6-0.6-0.9-1.3-0.9-2.1v-34c0-0.8,0.3-1.5,0.9-2.1c0.6-0.6,1.3-0.9,2.1-0.9h18l11,10.9v26.1c0,0.8-0.3,1.5-0.9,2.1
	c-0.6,0.6-1.3,0.9-2.1,0.9H5.4z M22,13.6V4.3H5.4v34h26V13.6H22z M5.4,4.3v9.3V4.3v34V4.3z"/>
</svg>
